# This file uses centimeters as units for non-parametric coordinates.

mtllib caixa.mtl
g default
v -13.581761 1.248502 -7.368389
v 7.397981 1.248502 -7.368389
v -13.581761 1.248502 4.214604
v 7.397981 1.248502 4.214604
v -12.822972 1.248502 5.125041
v -12.822972 1.248502 -8.215677
v -12.822972 1.248502 -7.368388
v -12.822972 1.248502 4.214604
v -12.822972 1.248502 4.912700
v 6.654357 1.248502 5.125041
v 6.654357 1.248502 4.214604
v 6.654357 1.248502 -7.368388
v 6.654357 1.248502 -8.215677
v 6.654355 8.401053 5.125041
v 7.397981 8.401058 4.214604
v 7.397981 8.401058 -7.368389
v 6.654355 8.401053 -8.215677
v -12.822972 8.401053 -8.215677
v -13.581761 8.401058 -7.368389
v -13.581761 8.401058 4.214603
v -12.822972 8.401053 5.125041
v -12.822972 1.248502 5.125041
v 6.654357 1.248502 5.125041
v 6.654357 1.248502 5.125041
v -12.822972 1.248502 5.125041
v 6.654357 1.248502 5.125041
v -12.822972 8.401053 -8.402494
v -12.822972 1.248502 -8.400965
v -12.822972 8.401053 5.311333
v -12.822972 1.248502 5.310328
v 6.654355 8.401053 5.311333
v 6.654357 1.248502 5.310328
v 6.654355 8.401053 -8.402494
v 6.654357 1.248502 -8.400965
v 7.572813 8.401058 4.214604
v 7.572813 8.401058 -7.368389
v 7.572813 1.248502 4.214604
v 7.572813 1.248502 -7.368389
v 7.572813 8.401053 -8.400965
v 7.572813 1.248502 -8.400965
v -13.756578 8.401058 -7.368389
v -13.756578 8.401058 4.214603
v -13.756578 1.248502 -7.368389
v -13.756578 1.248502 4.214604
v -13.756578 1.248504 4.912699
v -13.756578 8.401053 -8.400965
v -13.756578 1.248502 -8.400965
v -13.756578 8.401053 5.311333
v -13.756578 1.248504 5.125041
v -13.756578 1.248502 5.310328
v 7.572813 8.401053 5.311333
v 7.572813 1.248502 5.310328
v -13.756578 8.802668 4.214603
v -13.756578 8.802668 -7.368389
v -13.756578 8.802668 -8.400965
v -12.822972 8.802668 -8.402494
v 6.654355 8.802668 -8.402494
v 7.572813 8.802668 -8.400965
v 7.572813 8.802668 -7.368389
v 7.572813 8.802668 4.214604
v -13.756578 8.802668 5.311333
v -12.822972 8.802668 5.311333
v 6.654355 8.802668 5.311333
v 7.572813 8.802668 5.311333
v -12.836433 8.802668 3.263319
v -12.836433 8.802668 -6.456139
v -12.836433 8.802668 -7.322588
v -11.983376 8.802668 -7.323871
v 5.813451 8.802668 -7.323871
v 6.652664 8.802668 -7.322588
v 6.652664 8.802668 -6.456139
v 6.652664 8.802668 3.263319
v -12.836433 8.802668 4.183600
v -11.983376 8.802668 4.183600
v 5.813451 8.802668 4.183600
v 6.652665 8.802668 4.183600
v -12.836433 8.092086 3.604303
v -12.836433 8.092086 3.263319
v -12.836433 8.092086 -6.456139
v -12.836433 8.092086 -7.322588
v -11.983376 8.092086 -7.323871
v 5.813451 8.092086 -7.323871
v 6.652664 8.092086 -7.322588
v 6.652664 8.092086 -6.456139
v 6.652664 8.092086 3.263319
v -12.836433 8.092086 4.183600
v -11.983376 8.092086 4.183600
v 5.813451 8.092086 4.183600
v 6.652665 8.092086 4.183600
v -13.440952 8.092086 3.598975
v -13.440952 8.092086 -6.795446
v -13.440952 8.092086 -7.722065
v -12.534972 8.092086 -7.723436
v 6.365911 8.092086 -7.723436
v 7.257187 8.092086 -7.722065
v 7.257187 8.092086 -6.795446
v 7.257187 8.092086 3.598975
v -13.440952 8.092086 4.583165
v -12.534972 8.092086 4.583166
v 6.365911 8.092086 4.583164
v 7.257188 8.092086 4.583164
v -13.440952 1.637972 3.598976
v -13.440952 1.637972 -6.795446
v -13.440952 1.637972 -7.722065
v -12.534972 1.637972 -7.723436
v 6.365911 1.637972 -7.723436
v 7.257187 1.637972 -7.722065
v 7.257187 1.637972 -6.795446
v 7.257187 1.637972 3.598976
v -13.440952 1.637972 4.583164
v -12.534972 1.637972 4.583164
v 6.365911 1.637972 4.583164
v 7.257188 1.637972 4.583163
v -12.703781 1.637972 3.230759
v -12.703781 1.637972 -6.423355
v -12.703781 1.637974 -7.284210
v -11.861905 1.637974 -7.285177
v 5.692370 1.637974 -7.285177
v 6.520015 1.637974 -7.284210
v 6.520015 1.637972 -6.423355
v 6.520015 1.637972 3.230759
v -12.703781 1.637972 4.144905
v -11.861905 1.637972 4.144904
v 5.692370 1.637972 4.144904
v 6.520020 1.637972 4.144904
vt 0.476716 0.487899
vt 0.471525 0.487899
vt 0.471525 0.456694
vt 0.476716 0.456694
vt 0.549428 0.487899
vt 0.544080 0.487899
vt 0.544080 0.456694
vt 0.549428 0.456694
vt 0.544080 0.431796
vt 0.476716 0.431796
vt 0.476716 0.402771
vt 0.476716 0.395336
vt 0.544080 0.395336
vt 0.544080 0.279297
vt 0.544080 0.310503
vt 0.476716 0.310503
vt 0.476716 0.279297
vt 0.544080 0.150444
vt 0.476716 0.150444
vt 0.476716 0.114393
vt 0.544080 0.114393
vt 0.600253 0.228980
vt 0.576814 0.228980
vt 0.576814 0.162145
vt 0.600253 0.162145
vt 0.476716 0.244603
vt 0.476716 0.177768
vt 0.544080 0.177768
vt 0.544080 0.244603
vt 0.420700 0.162145
vt 0.444139 0.162145
vt 0.444139 0.228980
vt 0.420700 0.228980
vt 0.642111 0.313058
vt 0.642111 0.379892
vt 0.574746 0.379892
vt 0.574746 0.313058
vt 0.018966 0.109494
vt 0.330579 0.316927
vt 0.330579 0.316927
vt 0.018966 0.524359
vt 0.698462 0.109494
vt 1.010075 0.109494
vt 1.010075 0.524359
vt 0.698462 0.524359
vt 0.354670 0.563255
vt 0.666283 0.563255
vt 0.666283 0.978120
vt 0.354670 0.978120
vt 0.707354 0.561282
vt 1.018966 0.561282
vt 1.018966 0.976147
vt 0.707354 0.976147
vt 0.510477 0.524359
vt 0.510477 0.524359
vt 0.510477 0.524359
vt 0.510477 0.524359
vt 0.510477 0.524359
vt 0.666283 0.524359
vt 0.354670 0.524359
vt 0.510477 0.524359
vt 0.354670 0.524359
vt 0.510477 0.524359
vt 0.510477 0.524359
vt 0.354670 0.524359
vn -0.000000 -1.000000 0.000000
vn -0.000000 -1.000000 0.000000
vn 0.000000 -1.000000 0.000000
vn 0.000000 -1.000000 0.000000
vn -1.000000 0.000000 0.000000
vn -1.000000 0.000000 0.000000
vn -1.000000 0.000000 0.000000
vn -1.000000 0.000000 0.000000
vn -1.000000 0.000000 0.000000
vn -1.000000 0.000000 0.000000
vn 1.000000 0.000000 0.000000
vn 1.000000 0.000000 0.000000
vn 1.000000 0.000000 0.000000
vn 1.000000 0.000000 0.000000
vn 0.000876 -0.000101 -1.000000
vn 0.000876 -0.000101 -1.000000
vn 0.001664 0.000000 -0.999999
vn 0.001664 0.000000 -0.999999
vn 0.000000 -1.000000 0.000000
vn 0.000000 -1.000000 0.000000
vn 0.000000 -1.000000 0.000000
vn 0.000000 -1.000000 0.000000
vn 0.000000 -1.000000 0.000000
vn 0.000000 -1.000000 0.000000
vn 0.000000 -1.000000 -0.000000
vn 0.000000 -1.000000 -0.000000
vn 0.000000 -1.000000 -0.000000
vn 0.000000 -1.000000 0.000000
vn -0.000000 -1.000000 0.000000
vn 0.000000 -1.000000 0.000000
vn 0.000000 0.000000 -1.000000
vn 0.000000 0.000000 -1.000000
vn 0.000000 0.000000 -1.000000
vn 0.000000 0.000000 -1.000000
vn 0.000000 -0.000141 1.000000
vn 0.000000 -0.000141 1.000000
vn 0.000000 -0.000141 1.000000
vn 0.000000 -0.000141 1.000000
vn 1.000000 0.000000 0.000000
vn 1.000000 0.000000 0.000000
vn 1.000000 0.000000 0.000000
vn 1.000000 0.000000 0.000000
vn 0.000832 -0.000107 -1.000000
vn 0.000832 -0.000107 -1.000000
vn 0.000000 0.000000 -1.000000
vn 0.000000 0.000000 -1.000000
vn 0.000000 0.000000 -1.000000
vn 0.000000 0.000000 -1.000000
vn -1.000000 0.000000 0.000000
vn -1.000000 0.000000 0.000000
vn -1.000000 -0.000000 0.000000
vn -1.000000 -0.000000 0.000000
vn -1.000000 -0.000000 0.000000
vn -1.000000 -0.000000 0.000000
vn 0.000000 0.000000 1.000000
vn 0.000000 0.000000 1.000000
vn 0.000000 0.000000 1.000000
vn 0.000000 0.000000 1.000000
vn 0.000000 0.000000 0.000000
vn 0.000000 0.000000 0.000000
vn 0.000000 0.000000 0.000000
vn 0.000000 0.000000 0.000000
vn 0.000000 0.000000 0.000000
vn 0.000000 0.000000 0.000000
vn 0.000000 0.000000 0.000000
vn 0.000000 0.000000 0.000000
vn 0.000000 0.000000 0.000000
vn 0.000000 0.000000 0.000000
vn 0.000000 0.000000 0.000000
vn 0.000000 0.000000 0.000000
vn 1.000000 0.000000 0.000000
vn 1.000000 0.000000 0.000000
vn 1.000000 0.000000 0.000000
vn 1.000000 0.000000 0.000000
vn 0.000000 -1.000000 0.000000
vn 0.000000 -1.000000 0.000000
vn 0.000000 -1.000000 0.000000
vn 1.000000 -0.000000 0.000000
vn 1.000000 -0.000000 0.000000
vn 1.000000 -0.000000 0.000000
vn 1.000000 -0.000000 0.000000
vn -1.000000 -0.000000 0.000000
vn -1.000000 -0.000000 0.000000
vn -1.000000 -0.000000 0.000000
vn -1.000000 -0.000000 0.000000
vn 0.000000 -1.000000 -0.000000
vn 0.000000 -1.000000 -0.000000
vn 0.000000 -1.000000 -0.000000
vn 0.000000 -0.000000 -0.000000
vn 0.000000 -0.000000 -0.000000
vn 0.000000 -0.000000 -0.000000
vn 1.000000 0.000000 0.000000
vn 1.000000 0.000000 0.000000
vn -1.000000 -0.000000 0.000000
vn -1.000000 -0.000000 0.000000
vn -1.000000 -0.000000 0.000000
vn -1.000000 -0.000000 0.000000
vn 1.000000 0.000000 0.000000
vn 1.000000 0.000000 0.000000
vn 1.000000 0.000000 0.000000
vn 1.000000 0.000000 0.000000
vn 0.000000 -1.000000 0.000000
vn 0.000000 -1.000000 0.000000
vn 0.000000 -1.000000 0.000000
vn 0.000000 -1.000000 0.000000
vn 0.000000 -1.000000 0.000000
vn 0.000000 -1.000000 0.000000
vn 0.000000 -1.000000 0.000000
vn 0.000000 -1.000000 0.000000
vn 0.000000 -1.000000 0.000000
vn 0.000000 -1.000000 0.000000
vn 0.000000 -1.000000 0.000000
vn 0.000000 -1.000000 0.000000
vn 0.000000 -0.000000 -1.000000
vn 0.000000 -0.000000 -1.000000
vn 0.000000 -0.000000 -1.000000
vn 0.000000 -0.000000 -1.000000
vn 0.000000 0.000000 1.000000
vn 0.000000 0.000000 1.000000
vn 0.000000 0.000000 1.000000
vn 0.000000 0.000000 1.000000
vn 0.000000 -1.000000 0.000000
vn 0.000000 -1.000000 0.000000
vn 0.000000 -1.000000 0.000000
vn 0.000000 -1.000000 0.000000
vn 0.000000 0.000000 1.000000
vn 0.000000 0.000000 1.000000
vn 0.000000 0.000000 1.000000
vn 0.000000 0.000000 1.000000
vn -0.000001 -1.000000 0.000000
vn -0.000001 -1.000000 0.000000
vn -0.000001 -1.000000 0.000000
vn -0.000001 -1.000000 0.000000
vn -0.000001 -1.000000 0.000000
vn -0.000001 -1.000000 0.000000
vn 0.000000 -0.000000 -1.000000
vn 0.000000 -0.000000 -1.000000
vn 0.000000 -0.000000 -1.000000
vn 0.000000 -0.000000 -1.000000
vn -0.001637 0.000000 -0.999999
vn -0.001637 0.000000 -0.999999
vn -0.001637 0.000000 -0.999999
vn -0.001637 0.000000 -0.999999
vn -0.000819 -0.000107 -1.000000
vn -0.000819 -0.000107 -1.000000
vn -0.000819 -0.000107 -1.000000
vn -0.000819 -0.000107 -1.000000
vn 0.000000 -0.000141 1.000000
vn 0.000000 -0.000141 1.000000
vn 0.000000 -0.000141 1.000000
vn 0.000000 -0.000141 1.000000
vn 0.000000 0.000000 1.000000
vn 0.000000 0.000000 1.000000
vn 0.000000 0.000000 1.000000
vn 0.000000 0.000000 1.000000
vn 0.000000 0.000000 1.000000
vn 0.000000 0.000000 1.000000
vn 0.000000 0.000000 1.000000
vn 0.000000 0.000000 1.000000
vn 0.000000 0.000000 1.000000
vn 0.000000 0.000000 1.000000
vn 0.000000 0.000000 1.000000
vn 0.000000 0.000000 1.000000
vn 0.000000 1.000000 0.000000
vn 0.000000 1.000000 0.000000
vn 0.000000 1.000000 0.000000
vn 0.000000 1.000000 0.000000
vn 0.000000 1.000000 0.000000
vn 0.000000 1.000000 0.000000
vn 0.000000 1.000000 0.000000
vn 0.000000 1.000000 0.000000
vn 0.000000 1.000000 0.000000
vn 0.000000 1.000000 0.000000
vn 0.000000 1.000000 0.000000
vn 0.000000 1.000000 0.000000
vn 0.000000 1.000000 -0.000001
vn 0.000000 1.000000 -0.000001
vn 0.000000 1.000000 -0.000001
vn 0.000000 1.000000 -0.000001
vn 0.000000 1.000000 0.000000
vn 0.000000 1.000000 0.000000
vn 0.000000 1.000000 0.000000
vn 0.000000 1.000000 0.000000
vn 0.000000 1.000000 0.000000
vn 0.000000 1.000000 0.000000
vn 0.000000 1.000000 0.000000
vn 0.000000 1.000000 0.000000
vn 0.000000 1.000000 0.000000
vn 0.000000 1.000000 0.000000
vn 0.000000 1.000000 0.000000
vn 0.000000 1.000000 0.000000
vn 0.000000 1.000000 0.000000
vn 0.000000 1.000000 0.000000
vn 0.000000 1.000000 0.000000
vn 0.000000 1.000000 0.000000
vn 0.000000 1.000000 0.000000
vn 0.000000 1.000000 0.000000
vn 0.000000 1.000000 0.000000
vn 0.000000 1.000000 0.000000
vn 0.000000 1.000000 0.000000
vn 0.000000 1.000000 0.000000
vn 0.000000 1.000000 0.000000
vn 0.000000 1.000000 0.000000
vn 0.000000 1.000000 0.000000
vn 0.000000 1.000000 0.000000
vn 0.000000 1.000000 0.000000
vn 0.000000 1.000000 0.000000
vn 1.000000 -0.000001 0.000000
vn 1.000000 -0.000001 0.000000
vn 1.000000 -0.000001 0.000000
vn 1.000000 -0.000001 0.000000
vn 1.000000 -0.000001 0.000000
vn 1.000000 0.000000 0.000000
vn 1.000000 0.000000 0.000000
vn 1.000000 0.000000 0.000000
vn 1.000000 0.000000 0.000000
vn 1.000000 0.000000 0.000000
vn 1.000000 0.000000 0.000000
vn 1.000000 0.000000 0.000000
vn 1.000000 0.000000 0.000000
vn 0.001503 0.000000 0.999999
vn 0.001503 0.000000 0.999999
vn 0.001503 0.000000 0.999999
vn 0.001503 0.000000 0.999999
vn 0.000000 0.000000 1.000000
vn 0.000000 0.000000 1.000000
vn 0.000000 0.000000 1.000000
vn 0.000000 0.000000 1.000000
vn -0.001528 0.000000 0.999999
vn -0.001528 0.000000 0.999999
vn -0.001528 0.000000 0.999999
vn -0.001528 0.000000 0.999999
vn -1.000000 0.000000 0.000000
vn -1.000000 0.000000 0.000000
vn -1.000000 0.000000 0.000000
vn -1.000000 0.000000 0.000000
vn -1.000000 0.000000 0.000000
vn -1.000000 0.000000 0.000000
vn -1.000000 0.000000 0.000000
vn -1.000000 0.000000 0.000000
vn 0.000000 0.000000 -1.000000
vn 0.000000 0.000000 -1.000000
vn 0.000000 0.000000 -1.000000
vn 0.000000 0.000000 -1.000000
vn 0.000000 0.000000 -1.000000
vn 0.000000 0.000000 -1.000000
vn 0.000000 0.000000 -1.000000
vn 0.000000 0.000000 -1.000000
vn 0.000000 0.000000 -1.000000
vn 0.000000 0.000000 -1.000000
vn 0.000000 0.000000 -1.000000
vn 0.000000 0.000000 -1.000000
vn -1.000000 0.000000 0.000001
vn -1.000000 0.000000 0.000001
vn -1.000000 0.000000 0.000001
vn -1.000000 0.000000 0.000001
vn 0.000000 -1.000000 0.000000
vn 0.000000 -1.000000 0.000000
vn 0.000000 -1.000000 0.000000
vn 0.000000 -1.000000 0.000000
vn 0.000000 -1.000000 0.000000
vn 0.000000 -1.000000 0.000000
vn 0.000000 -1.000000 0.000000
vn 0.000000 -1.000000 0.000000
vn 0.000000 -1.000000 0.000001
vn 0.000000 -1.000000 0.000001
vn 0.000000 -1.000000 0.000001
vn 0.000000 -1.000000 0.000001
vn 0.000000 -1.000000 0.000000
vn 0.000000 -1.000000 0.000000
vn 0.000000 -1.000000 0.000000
vn 0.000000 -1.000000 0.000000
vn 0.000000 -1.000000 -0.000001
vn 0.000000 -1.000000 -0.000001
vn 0.000000 -1.000000 -0.000001
vn 0.000000 -1.000000 -0.000001
vn 0.000000 -1.000000 0.000000
vn 0.000000 -1.000000 0.000000
vn 0.000000 -1.000000 0.000000
vn 0.000000 -1.000000 0.000000
vn 0.000000 -1.000000 0.000000
vn 0.000000 -1.000000 0.000000
vn 0.000000 -1.000000 0.000000
vn 0.000000 -1.000000 0.000000
vn 0.000000 -1.000000 -0.000001
vn 0.000000 -1.000000 -0.000001
vn 0.000000 -1.000000 -0.000001
vn 0.000000 -1.000000 -0.000001
vn 0.000000 -1.000000 -0.000000
vn 0.000000 -1.000000 -0.000000
vn 0.000000 -1.000000 -0.000000
vn 0.000000 -1.000000 -0.000000
vn 0.000000 -1.000000 0.000000
vn 0.000000 -1.000000 0.000000
vn 0.000000 -1.000000 0.000000
vn 0.000000 -1.000000 0.000000
vn 0.000000 -1.000000 0.000000
vn 0.000000 -1.000000 0.000000
vn 0.000000 -1.000000 0.000000
vn 0.000000 -1.000000 0.000000
vn 1.000000 -0.000000 0.000000
vn 1.000000 -0.000000 0.000000
vn 1.000000 -0.000000 0.000000
vn 1.000000 -0.000000 0.000000
vn 1.000000 0.000000 0.000000
vn 1.000000 0.000000 0.000000
vn 1.000000 0.000000 0.000000
vn 1.000000 0.000000 0.000000
vn 0.001514 0.000000 0.999999
vn 0.001514 0.000000 0.999999
vn 0.001514 0.000000 0.999999
vn 0.001514 0.000000 0.999999
vn 0.000000 0.000000 1.000000
vn 0.000000 0.000000 1.000000
vn 0.000000 0.000000 1.000000
vn 0.000000 0.000000 1.000000
vn -0.001539 0.000000 0.999999
vn -0.001539 0.000000 0.999999
vn -0.001539 0.000000 0.999999
vn -0.001539 0.000000 0.999999
vn -1.000000 0.000000 0.000000
vn -1.000000 0.000000 0.000000
vn -1.000000 0.000000 0.000000
vn -1.000000 0.000000 0.000000
vn -1.000000 -0.000000 0.000000
vn -1.000000 -0.000000 0.000000
vn -1.000000 -0.000000 0.000000
vn -1.000000 -0.000000 0.000000
vn 0.000001 0.000000 -1.000000
vn 0.000001 0.000000 -1.000000
vn 0.000001 0.000000 -1.000000
vn 0.000001 0.000000 -1.000000
vn -0.000000 0.000000 -1.000000
vn -0.000000 0.000000 -1.000000
vn -0.000000 0.000000 -1.000000
vn -0.000000 0.000000 -1.000000
vn 0.000000 0.000000 -1.000000
vn 0.000000 0.000000 -1.000000
vn 0.000000 0.000000 -1.000000
vn 0.000000 0.000000 -1.000000
vn -1.000000 0.000000 0.000001
vn -1.000000 0.000000 0.000001
vn -1.000000 0.000000 0.000001
vn -1.000000 0.000000 0.000001
vn 0.000000 1.000000 0.000000
vn 0.000000 1.000000 0.000000
vn 0.000000 1.000000 0.000000
vn 0.000000 1.000000 0.000000
vn -0.000001 1.000000 0.000001
vn -0.000001 1.000000 0.000001
vn -0.000001 1.000000 0.000001
vn -0.000001 1.000000 0.000001
vn -0.000000 1.000000 -0.000003
vn -0.000000 1.000000 -0.000003
vn -0.000000 1.000000 -0.000003
vn -0.000000 1.000000 -0.000003
vn 0.000000 1.000000 -0.000003
vn 0.000000 1.000000 -0.000003
vn 0.000000 1.000000 -0.000003
vn 0.000000 1.000000 -0.000003
vn 0.000000 1.000000 -0.000003
vn 0.000000 1.000000 -0.000003
vn 0.000000 1.000000 -0.000003
vn 0.000000 1.000000 -0.000003
vn 0.000001 1.000000 0.000001
vn 0.000001 1.000000 0.000001
vn 0.000001 1.000000 0.000001
vn 0.000001 1.000000 0.000001
vn 0.000000 1.000000 0.000000
vn 0.000000 1.000000 0.000000
vn 0.000000 1.000000 0.000000
vn 0.000000 1.000000 0.000000
vn 0.000000 1.000000 0.000000
vn 0.000000 1.000000 0.000000
vn 0.000000 1.000000 0.000000
vn 0.000000 1.000000 0.000000
vn 0.000000 1.000000 0.000000
vn 0.000000 1.000000 0.000000
vn 0.000000 1.000000 0.000000
vn 0.000000 1.000000 0.000000
vn 0.000000 1.000000 -0.000000
vn 0.000000 1.000000 -0.000000
vn 0.000000 1.000000 -0.000000
vn 0.000000 1.000000 -0.000000
vn 0.000000 1.000000 0.000000
vn 0.000000 1.000000 0.000000
vn 0.000000 1.000000 0.000000
vn 0.000000 1.000000 0.000000
vn 0.000000 1.000000 0.000000
vn 0.000000 1.000000 0.000000
vn 0.000000 1.000000 0.000000
vn 0.000000 1.000000 0.000000
vn 0.000000 1.000000 0.000002
vn 0.000000 1.000000 0.000002
vn 0.000000 1.000000 0.000002
vn 0.000000 1.000000 0.000002
vn -1.000000 0.000000 0.000000
vn -1.000000 0.000000 0.000000
vn -1.000000 0.000000 0.000000
vn -1.000000 0.000000 0.000000
vn -1.000000 0.000000 0.000000
vn -1.000000 0.000000 0.000000
vn -1.000000 0.000000 0.000000
vn -1.000000 0.000000 0.000000
vn 0.000000 1.000000 0.000000
vn 0.000000 1.000000 0.000000
vn 0.000000 1.000000 0.000000
vn 0.000000 1.000000 0.000000
vn 1.000000 0.000000 0.000000
vn 1.000000 0.000000 0.000000
vn 1.000000 0.000000 0.000000
vn 1.000000 0.000000 0.000000
vn 0.000000 -1.000000 0.000000
vn 0.000000 -1.000000 0.000000
vn 0.000000 -1.000000 0.000000
vn 0.000000 -1.000000 0.000000
vn 0.000000 1.000000 0.000000
vn 0.000000 1.000000 0.000000
vn 0.000000 1.000000 0.000000
vn 0.000000 1.000000 0.000000
vn 0.000000 1.000000 0.000000
vn 0.000000 1.000000 0.000000
vn 0.000000 1.000000 0.000000
vn 0.000000 1.000000 0.000000
vn 1.000000 -0.000000 0.000000
vn 1.000000 -0.000000 0.000000
vn 1.000000 -0.000000 0.000000
vn 1.000000 -0.000000 0.000000
s 1
g textureEditorIsolateSelectSet polySurface2 pCube1
usemtl standardSurface2SG
f 8/1/1 3/2/2 1/3/3 7/4/4
s 2
g polySurface2 pCube1
usemtl standardSurface8SG
f 46//5 41//6 54//7 55//8
f 41//6 42//9 53//10 54//7
s 3
f 59//11 60//12 35//13 36//14
s 4
f 39//15 33//16 57//17 58//18
s 1
f 38//19 2//20 12//21 13//22 34//23 40//24
g textureEditorIsolateSelectSet polySurface2 pCube1
usemtl standardSurface2SG
f 4/5/25 11/6/26 12/7/21 2/8/20
f 10/9/27 5/10/28 9/11/29 8/12/1 11/13/26
f 12/14/21 11/15/26 8/16/1 7/17/4
f 12/18/21 7/19/4 6/20/30 13/21/22
s off
g polySurface2 pCube1
usemtl standardSurface8SG
f 27//31 56//32 57//33 33//34
f 31//35 32//36 52//37 51//38
g textureEditorIsolateSelectSet polySurface2 pCube1
usemtl standardSurface3SG
f 16/22/39 15/23/40 4/24/41 2/25/42
s 4
g polySurface2 pCube1
usemtl standardSurface8SG
f 34//43 33//16 39//15 40//44
s off
g textureEditorIsolateSelectSet polySurface2 pCube1
usemtl standardSurface5SG
f 6/26/45 18/27/46 17/28/47 13/29/48
s 2
g polySurface2 pCube1
usemtl standardSurface8SG
f 43//49 41//6 46//5 47//50
s off
g textureEditorIsolateSelectSet polySurface2 pCube1
usemtl standardSurface4SG
f 1/30/51 3/31/52 20/32/53 19/33/54
f 10/34/55 14/35/56 21/36/57 5/37/58
g polySurface2 pCube1
usemtl initialShadingGroup
f 5//59 21//60 22//61
f 14//62 10//63 23//64
f 14//65 23//66 24//67
f 14//68 24//69 26//70
usemtl standardSurface8SG
f 18//71 6//72 28//73 27//74
s 1
f 43//75 47//76 28//77 6//30 7//4 1//3
s off
f 25//78 21//79 29//80 30//81
f 14//82 26//83 32//84 31//85
s 1
f 37//86 52//87 32//88 26//89 24//90 23//91 10//27 11//26 4//25
s 3
f 36//14 39//92 58//93 59//11
s off
f 13//94 17//95 33//96 34//97
f 38//98 40//99 39//100 36//101
f 21//102 14//103 31//104 29//105
f 17//106 18//107 27//108 33//109
f 15//110 16//111 36//112 35//113
f 4//114 15//115 35//116 37//117
f 16//118 2//119 38//120 36//121
f 19//122 20//123 42//124 41//125
f 1//126 19//127 41//128 43//129
s 1
f 45//130 44//131 3//2 8//1 9//29 25//132 30//133 50//134 49//135
s off
f 20//136 3//137 44//138 42//139
f 27//140 46//141 55//142 56//143
f 28//144 47//145 46//146 27//147
f 29//148 48//149 50//150 30//151
f 61//152 48//153 29//154 62//155
f 29//156 31//157 63//158 62//159
f 63//160 31//161 51//162 64//163
f 54//164 53//165 65//166 66//167
f 67//168 55//169 54//170 66//171
f 68//172 56//173 55//174 67//175
f 57//176 56//177 68//178 69//179
f 70//180 58//181 57//182 69//183
f 71//184 59//185 58//186 70//187
f 60//188 59//189 71//190 72//191
f 73//192 61//193 62//194 74//195
f 62//196 63//197 75//198 74//199
f 75//200 63//201 64//202 76//203
f 76//204 64//205 60//206 72//207
f 77//208 78//209 65//210 73//211 86//212
f 66//213 65//214 78//215 79//216
f 80//217 67//218 66//219 79//220
f 81//221 68//222 67//223 80//224
f 69//225 68//226 81//227 82//228
f 83//229 70//230 69//231 82//232
f 84//233 71//234 70//235 83//236
f 72//237 71//238 84//239 85//240
f 86//241 73//242 74//243 87//244
f 74//245 75//246 88//247 87//248
f 88//249 75//250 76//251 89//252
f 89//253 76//254 72//255 85//256
f 79//257 78//258 90//259 91//260
f 92//261 80//262 79//263 91//264
f 93//265 81//266 80//267 92//268
f 82//269 81//270 93//271 94//272
f 95//273 83//274 82//275 94//276
f 96//277 84//278 83//279 95//280
f 85//281 84//282 96//283 97//284
f 98//285 86//286 87//287 99//288
f 87//289 88//290 100//291 99//292
f 100//293 88//294 89//295 101//296
usemtl initialShadingGroup
f 101//297 89//298 85//299 97//300
g textureEditorIsolateSelectSet polySurface2 pCube1
usemtl standardSurface3SG
f 91/38/301 90/39/302 102/40/303 103/41/304
g polySurface2 pCube1
usemtl standardSurface8SG
f 104//305 92//306 91//307 103//308
f 105//309 93//310 92//311 104//312
g textureEditorIsolateSelectSet polySurface2 pCube1
usemtl standardSurface3SG
f 94/42/313 93/43/314 105/44/315 106/45/316
g polySurface2 pCube1
usemtl standardSurface8SG
f 107//317 95//318 94//319 106//320
f 108//321 96//322 95//323 107//324
g textureEditorIsolateSelectSet polySurface2 pCube1
usemtl standardSurface3SG
f 97/46/325 96/47/326 108/48/327 109/49/328
g polySurface2 pCube1
usemtl standardSurface8SG
f 110//329 98//330 99//331 111//332
g textureEditorIsolateSelectSet polySurface2 pCube1
usemtl standardSurface3SG
f 99/50/333 100/51/334 112/52/335 111/53/336
g polySurface2 pCube1
usemtl standardSurface8SG
f 112//337 100//338 101//339 113//340
f 113//341 101//342 97//343 109//344
f 103//345 102//346 114//347 115//348
f 116//349 104//350 103//351 115//352
f 116//353 117//354 105//355 104//356
f 106//357 105//358 117//359 118//360
f 118//361 119//362 107//363 106//364
f 120//365 108//366 107//367 119//368
f 109//369 108//370 120//371 121//372
f 123//373 122//374 110//375 111//376
f 111//377 112//378 124//379 123//380
f 125//381 124//382 112//383 113//384
f 121//385 125//386 113//387 109//388
g textureEditorIsolateSelectSet polySurface2 pCube1
usemtl standardSurface6SG
f 115/54/389 114/55/390 121/56/391 120/57/392
usemtl standardSurface2SG
f 120/58/393 119/59/394 116/60/395 115/61/396
g polySurface2 pCube1
usemtl standardSurface8SG
f 42//397 44//398 50//399 48//400
f 48//401 61//402 53//403 42//404
f 65//405 53//406 61//407 73//408
f 102//409 90//410 98//411 110//412
f 90//413 78//414 86//415 98//416
f 114//417 102//418 110//419 122//420
g textureEditorIsolateSelectSet polySurface2 pCube1
usemtl standardSurface2SG
f 125/62/421 121/63/422 114/64/423 122/65/424
g polySurface2 pCube1
usemtl standardSurface8SG
f 52//425 37//426 60//427 64//428
