# This file uses centimeters as units for non-parametric coordinates.

mtllib negocinho_do_puzzle.mtl
g default
v 2.614174 4.592270 -1.943627
v 2.223749 5.358522 -1.943627
v 1.615649 5.966623 -1.943627
v 0.849397 6.357048 -1.943627
v 0.000000 6.491579 -1.943627
v -0.849397 6.357048 -1.943627
v -1.615648 5.966623 -1.943627
v -2.223749 5.358522 -1.943627
v -2.614173 4.592270 -1.943627
v -2.748704 3.742874 -1.943627
v -2.614173 2.893477 -1.943627
v -2.223748 2.127226 -1.943627
v -1.615648 1.519125 -1.943627
v -0.849396 1.128701 -1.943627
v -0.000000 0.994170 -1.943627
v 0.849396 1.128701 -1.943627
v 1.615647 1.519126 -1.943627
v 2.223748 2.127226 -1.943627
v 2.614173 2.893478 -1.943627
v 3.692884 3.742874 -1.943627
v 1.945894 4.327279 1.943627
v 1.677273 4.854478 1.943627
v 1.258885 5.272866 1.943627
v 0.731686 5.541487 1.943627
v 0.147281 5.634048 1.943627
v -0.437124 5.541487 1.943627
v -0.964323 5.272866 1.943627
v -1.382711 4.854478 1.943627
v -1.651332 4.327279 1.943627
v -1.743893 3.742874 1.943627
v -1.651332 3.158469 1.943627
v -1.382711 2.631270 1.943627
v -0.964323 2.212882 1.943627
v -0.437124 1.944261 1.943627
v 0.147281 1.851700 1.943627
v 0.731686 1.944261 1.943627
v 1.258885 2.212883 1.943627
v 1.677272 2.631270 1.943627
v 1.945894 3.158469 1.943627
v 2.688073 3.742874 1.943627
v 0.000000 3.742874 -1.943627
v 0.147281 3.742874 1.943627
vt 0.648603 0.107966
vt 0.626409 0.064408
vt 0.591842 0.029841
vt 0.548284 0.007647
vt 0.500000 -0.000000
vt 0.451716 0.007647
vt 0.408159 0.029841
vt 0.373591 0.064409
vt 0.351397 0.107966
vt 0.343750 0.156250
vt 0.351397 0.204534
vt 0.373591 0.248091
vt 0.408159 0.282659
vt 0.451716 0.304853
vt 0.500000 0.312500
vt 0.548284 0.304853
vt 0.591841 0.282659
vt 0.626409 0.248091
vt 0.648603 0.204534
vt 0.656250 0.156250
vt 0.375000 0.312500
vt 0.387500 0.312500
vt 0.400000 0.312500
vt 0.412500 0.312500
vt 0.425000 0.312500
vt 0.437500 0.312500
vt 0.450000 0.312500
vt 0.462500 0.312500
vt 0.475000 0.312500
vt 0.487500 0.312500
vt 0.500000 0.312500
vt 0.512500 0.312500
vt 0.525000 0.312500
vt 0.537500 0.312500
vt 0.550000 0.312500
vt 0.562500 0.312500
vt 0.575000 0.312500
vt 0.587500 0.312500
vt 0.600000 0.312500
vt 0.612500 0.312500
vt 0.625000 0.312500
vt 0.375000 0.688440
vt 0.387500 0.688440
vt 0.400000 0.688440
vt 0.412500 0.688440
vt 0.425000 0.688440
vt 0.437500 0.688440
vt 0.450000 0.688440
vt 0.462500 0.688440
vt 0.475000 0.688440
vt 0.487500 0.688440
vt 0.500000 0.688440
vt 0.512500 0.688440
vt 0.525000 0.688440
vt 0.537500 0.688440
vt 0.550000 0.688440
vt 0.562500 0.688440
vt 0.575000 0.688440
vt 0.587500 0.688440
vt 0.600000 0.688440
vt 0.612500 0.688440
vt 0.625000 0.688440
vt 0.648603 0.795466
vt 0.626409 0.751908
vt 0.591842 0.717341
vt 0.548284 0.695147
vt 0.500000 0.687500
vt 0.451716 0.695147
vt 0.408159 0.717341
vt 0.373591 0.751909
vt 0.351397 0.795466
vt 0.343750 0.843750
vt 0.351397 0.892034
vt 0.373591 0.935591
vt 0.408159 0.970159
vt 0.451716 0.992353
vt 0.500000 1.000000
vt 0.548284 0.992353
vt 0.591841 0.970159
vt 0.626409 0.935591
vt 0.648603 0.892034
vt 0.656250 0.843750
vt 0.500000 0.150000
vt 0.500000 0.837500
vn 0.724455 0.668010 0.170083
vn 0.793514 0.579219 0.186658
vn 0.796046 0.575763 0.186566
vn 0.733851 0.657441 0.170978
vn 0.574119 0.795303 0.194629
vn 0.578894 0.791877 0.194456
vn 0.299139 0.932017 0.204599
vn 0.305699 0.929938 0.204361
vn -0.003677 0.976485 0.215553
vn 0.003523 0.976543 0.215293
vn -0.304305 0.925279 0.226401
vn -0.297841 0.927437 0.226168
vn -0.573555 0.784407 0.236094
vn -0.568911 0.787832 0.235927
vn -0.785877 0.568328 0.243723
vn -0.783439 0.571721 0.243636
vn -0.921548 0.298249 0.248591
vn -0.920877 0.300334 0.248567
vn -0.968178 0.000000 0.250263
vn -0.968178 0.000000 0.250263
vn -0.921548 -0.298249 0.248591
vn -0.920877 -0.300334 0.248567
vn -0.785876 -0.568329 0.243723
vn -0.783439 -0.571721 0.243636
vn -0.573555 -0.784407 0.236094
vn -0.568911 -0.787832 0.235927
vn -0.304305 -0.925279 0.226401
vn -0.297841 -0.927437 0.226168
vn -0.003677 -0.976485 0.215553
vn 0.003523 -0.976543 0.215293
vn 0.299140 -0.932017 0.204599
vn 0.305699 -0.929938 0.204361
vn 0.574119 -0.795303 0.194629
vn 0.578894 -0.791877 0.194455
vn 0.793514 -0.579219 0.186658
vn 0.796046 -0.575763 0.186566
vn 0.724454 -0.668011 0.170083
vn 0.733851 -0.657441 0.170978
vn 0.968178 -0.000001 0.250263
vn 0.968178 -0.000001 0.250263
vn 0.000000 -0.000000 -1.000000
vn 0.000000 -0.000000 -1.000000
vn 0.000000 0.000000 -1.000000
vn 0.000000 -0.000000 -1.000000
vn 0.000000 -0.000000 -1.000000
vn 0.000000 -0.000000 -1.000000
vn 0.000000 -0.000000 -1.000000
vn 0.000000 -0.000000 -1.000000
vn 0.000000 -0.000000 -1.000000
vn 0.000000 -0.000000 -1.000000
vn 0.000000 -0.000000 -1.000000
vn 0.000000 -0.000000 -1.000000
vn 0.000000 -0.000000 -1.000000
vn 0.000000 -0.000000 -1.000000
vn 0.000000 0.000000 -1.000000
vn 0.000000 0.000000 -1.000000
vn 0.000000 -0.000000 -1.000000
vn 0.000000 -0.000000 -1.000000
vn 0.000000 -0.000000 -1.000000
vn 0.000000 -0.000000 -1.000000
vn 0.000000 -0.000000 -1.000000
vn 0.000000 0.000000 1.000000
vn 0.000000 0.000000 1.000000
vn 0.000000 0.000000 1.000000
vn 0.000000 0.000000 1.000000
vn 0.000000 0.000000 1.000000
vn 0.000000 0.000000 1.000000
vn 0.000000 0.000000 1.000000
vn 0.000000 -0.000000 1.000000
vn 0.000000 -0.000000 1.000000
vn 0.000000 0.000000 1.000000
vn 0.000000 0.000000 1.000000
vn 0.000000 0.000000 1.000000
vn 0.000000 0.000000 1.000000
vn 0.000000 0.000000 1.000000
vn 0.000000 0.000000 1.000000
vn 0.000000 0.000000 1.000000
vn 0.000000 0.000000 1.000000
vn 0.000000 0.000000 1.000000
vn 0.000000 0.000000 1.000000
vn 0.000000 0.000000 1.000000
vn 0.000000 0.000000 1.000000
s 1
g pCylinder1
usemtl standardSurface2SG
f 1/21/1 2/22/2 22/43/3 21/42/4
f 2/22/2 3/23/5 23/44/6 22/43/3
f 3/23/5 4/24/7 24/45/8 23/44/6
f 4/24/7 5/25/9 25/46/10 24/45/8
f 5/25/9 6/26/11 26/47/12 25/46/10
f 6/26/11 7/27/13 27/48/14 26/47/12
f 7/27/13 8/28/15 28/49/16 27/48/14
f 8/28/15 9/29/17 29/50/18 28/49/16
f 9/29/17 10/30/19 30/51/20 29/50/18
f 10/30/19 11/31/21 31/52/22 30/51/20
f 11/31/21 12/32/23 32/53/24 31/52/22
f 12/32/23 13/33/25 33/54/26 32/53/24
f 13/33/25 14/34/27 34/55/28 33/54/26
f 14/34/27 15/35/29 35/56/30 34/55/28
f 15/35/29 16/36/31 36/57/32 35/56/30
f 16/36/31 17/37/33 37/58/34 36/57/32
f 17/37/33 18/38/35 38/59/36 37/58/34
f 18/38/35 19/39/37 39/60/38 38/59/36
f 19/39/37 20/40/39 40/61/40 39/60/38
f 20/40/39 1/41/1 21/62/4 40/61/40
s 2
f 2/2/41 1/1/42 41/83/43
f 3/3/44 2/2/41 41/83/43
f 4/4/45 3/3/44 41/83/43
f 5/5/46 4/4/45 41/83/43
f 6/6/47 5/5/46 41/83/43
f 7/7/48 6/6/47 41/83/43
f 8/8/49 7/7/48 41/83/43
f 9/9/50 8/8/49 41/83/43
f 10/10/51 9/9/50 41/83/43
f 11/11/52 10/10/51 41/83/43
f 12/12/53 11/11/52 41/83/43
f 13/13/54 12/12/53 41/83/43
f 14/14/55 13/13/54 41/83/43
f 15/15/56 14/14/55 41/83/43
f 16/16/57 15/15/56 41/83/43
f 17/17/58 16/16/57 41/83/43
f 18/18/59 17/17/58 41/83/43
f 19/19/60 18/18/59 41/83/43
f 20/20/61 19/19/60 41/83/43
f 1/1/42 20/20/61 41/83/43
s 3
f 21/81/62 22/80/63 42/84/64
f 22/80/63 23/79/65 42/84/64
f 23/79/65 24/78/66 42/84/64
f 24/78/66 25/77/67 42/84/64
f 25/77/67 26/76/68 42/84/64
f 26/76/68 27/75/69 42/84/64
f 27/75/69 28/74/70 42/84/64
f 28/74/70 29/73/71 42/84/64
f 29/73/71 30/72/72 42/84/64
f 30/72/72 31/71/73 42/84/64
f 31/71/73 32/70/74 42/84/64
f 32/70/74 33/69/75 42/84/64
f 33/69/75 34/68/76 42/84/64
f 34/68/76 35/67/77 42/84/64
f 35/67/77 36/66/78 42/84/64
f 36/66/78 37/65/79 42/84/64
f 37/65/79 38/64/80 42/84/64
f 38/64/80 39/63/81 42/84/64
f 39/63/81 40/82/82 42/84/64
f 40/82/82 21/81/62 42/84/64
